<?xml version="1.0" encoding="UTF-8"?>
<!DOCTYPE svg PUBLIC "-//W3C//DTD SVG 1.1//EN" "http://www.w3.org/Graphics/SVG/1.1/DTD/svg11.dtd">
<svg xmlns="http://www.w3.org/2000/svg" version="1.1" width="152px" height="142px" style="shape-rendering:geometricPrecision; text-rendering:geometricPrecision; image-rendering:optimizeQuality; fill-rule:evenodd; clip-rule:evenodd" xmlns:xlink="http://www.w3.org/1999/xlink">
<g><path style="opacity:1" fill="#506b89" d="M -0.5,-0.5 C 50.1667,-0.5 100.833,-0.5 151.5,-0.5C 151.5,12.8333 151.5,26.1667 151.5,39.5C 142.651,39.1736 133.984,39.507 125.5,40.5C 110.167,31.1667 94.8333,21.8333 79.5,12.5C 79.44,11.9569 79.1067,11.6236 78.5,11.5C 77.1826,17.9883 77.1826,24.3217 78.5,30.5C 80.4629,46.9279 81.1296,63.5946 80.5,80.5C 79.5043,67.0102 79.171,53.3435 79.5,39.5C 76.5,39.5 73.5,39.5 70.5,39.5C 70.8316,30.1429 70.4983,20.8096 69.5,11.5C 68.8933,11.6236 68.56,11.9569 68.5,12.5C 66.5,13.8333 64.5,15.1667 62.5,16.5C 41.6733,15.5027 20.6733,15.1694 -0.5,15.5C -0.5,10.1667 -0.5,4.83333 -0.5,-0.5 Z"/></g>
<g><path style="opacity:1" fill="#fdfdfd" d="M 68.5,12.5 C 69.4949,23.988 69.8283,35.6547 69.5,47.5C 63.8333,47.5 58.1667,47.5 52.5,47.5C 52.7852,45.712 52.4519,44.0453 51.5,42.5C 46.9748,46.1924 42.3081,49.6924 37.5,53C 36.5495,56.0567 36.2161,59.2234 36.5,62.5C 47.5,62.5 58.5,62.5 69.5,62.5C 69.8307,84.3398 69.4973,106.006 68.5,127.5C 62.0087,124.422 55.6754,121.088 49.5,117.5C 39.6478,111.987 29.8144,106.32 20,100.5C 19.5005,94.1754 19.3338,87.8421 19.5,81.5C 24.8333,81.5 30.1667,81.5 35.5,81.5C 35.3354,84.5184 35.502,87.5184 36,90.5C 41.58,93.373 47.08,96.373 52.5,99.5C 53.4975,91.8622 53.8308,84.1955 53.5,76.5C 42.5,76.5 31.5,76.5 20.5,76.5C 20.1679,65.4798 20.5012,54.4798 21.5,43.5C 35.0239,34.2411 48.6905,25.2411 62.5,16.5C 64.5,15.1667 66.5,13.8333 68.5,12.5 Z"/></g>
<g><path style="opacity:1" fill="#fdfdfd" d="M 79.5,12.5 C 94.8333,21.8333 110.167,31.1667 125.5,40.5C 126.885,41.6138 128.385,42.6138 130,43.5C 130.5,61.1635 130.667,78.8302 130.5,96.5C 118.5,103.833 106.5,111.167 94.5,118.5C 88.3148,121.178 82.4815,124.511 77,128.5C 76.5014,124.848 76.3347,121.182 76.5,117.5C 76.3359,114.813 76.5026,112.146 77,109.5C 77.9947,108.934 78.828,108.267 79.5,107.5C 80.4933,98.6822 80.8266,89.6822 80.5,80.5C 81.1296,63.5946 80.4629,46.9279 78.5,30.5C 78.1771,24.31 78.5104,18.31 79.5,12.5 Z"/></g>
<g><path style="opacity:1" fill="#4c6685" d="M -0.5,15.5 C 20.6733,15.1694 41.6733,15.5027 62.5,16.5C 48.6905,25.2411 35.0239,34.2411 21.5,43.5C 20.5012,54.4798 20.1679,65.4798 20.5,76.5C 19.5111,71.0247 19.1778,65.358 19.5,59.5C 12.8333,59.5 6.16667,59.5 -0.5,59.5C -0.5,44.8333 -0.5,30.1667 -0.5,15.5 Z"/></g>
<g><path style="opacity:1" fill="#b9c3cf" d="M 79.5,12.5 C 78.5104,18.31 78.1771,24.31 78.5,30.5C 77.1826,24.3217 77.1826,17.9883 78.5,11.5C 79.1067,11.6236 79.44,11.9569 79.5,12.5 Z"/></g>
<g><path style="opacity:1" fill="#a4b1c0" d="M 68.5,12.5 C 68.56,11.9569 68.8933,11.6236 69.5,11.5C 70.4983,20.8096 70.8316,30.1429 70.5,39.5C 70.8064,42.3854 70.4731,45.0521 69.5,47.5C 69.8283,35.6547 69.4949,23.988 68.5,12.5 Z"/></g>
<g><path style="opacity:1" fill="#475f7e" d="M 70.5,39.5 C 73.5,39.5 76.5,39.5 79.5,39.5C 79.171,53.3435 79.5043,67.0102 80.5,80.5C 80.8266,89.6822 80.4933,98.6822 79.5,107.5C 79.5,98.8333 79.5,90.1667 79.5,81.5C 76.5,81.5 73.5,81.5 70.5,81.5C 70.8235,74.9779 70.4902,68.6446 69.5,62.5C 58.5,62.5 47.5,62.5 36.5,62.5C 36.2161,59.2234 36.5495,56.0567 37.5,53C 42.3081,49.6924 46.9748,46.1924 51.5,42.5C 52.4519,44.0453 52.7852,45.712 52.5,47.5C 58.1667,47.5 63.8333,47.5 69.5,47.5C 70.4731,45.0521 70.8064,42.3854 70.5,39.5 Z"/></g>
<g><path style="opacity:1" fill="#475d7b" d="M -0.5,59.5 C 6.16667,59.5 12.8333,59.5 19.5,59.5C 19.1778,65.358 19.5111,71.0247 20.5,76.5C 31.5,76.5 42.5,76.5 53.5,76.5C 53.8308,84.1955 53.4975,91.8622 52.5,99.5C 47.08,96.373 41.58,93.373 36,90.5C 35.502,87.5184 35.3354,84.5184 35.5,81.5C 30.1667,81.5 24.8333,81.5 19.5,81.5C 12.8333,81.5 6.16667,81.5 -0.5,81.5C -0.5,74.1667 -0.5,66.8333 -0.5,59.5 Z"/></g>
<g><path style="opacity:1" fill="#465d7c" d="M 97.5,43.5 C 102.723,46.6982 107.89,50.0315 113,53.5C 113.833,65.1809 113.666,76.8476 112.5,88.5C 107.167,91.5 101.833,94.5 96.5,97.5C 95.5033,90.8665 95.17,84.1998 95.5,77.5C 96.1667,66.1667 96.8333,54.8333 97.5,43.5 Z"/></g>
<g><path style="opacity:1" fill="#445c7b" d="M 125.5,40.5 C 133.984,39.507 142.651,39.1736 151.5,39.5C 151.5,53.5 151.5,67.5 151.5,81.5C 144.833,81.5 138.167,81.5 131.5,81.5C 131.821,86.6946 131.487,91.6946 130.5,96.5C 130.667,78.8302 130.5,61.1635 130,43.5C 128.385,42.6138 126.885,41.6138 125.5,40.5 Z"/></g>
<g><path style="opacity:1" fill="#7c8ca1" d="M 97.5,43.5 C 96.8333,54.8333 96.1667,66.1667 95.5,77.5C 95.1678,65.8143 95.5011,54.1477 96.5,42.5C 97.1067,42.6236 97.44,42.9569 97.5,43.5 Z"/></g>
<g><path style="opacity:1" fill="#3d5271" d="M 70.5,81.5 C 73.5,81.5 76.5,81.5 79.5,81.5C 79.5,90.1667 79.5,98.8333 79.5,107.5C 78.828,108.267 77.9947,108.934 77,109.5C 76.5026,112.146 76.3359,114.813 76.5,117.5C 75.2436,117.904 74.0769,118.571 73,119.5C 71.2382,119.056 71.4049,118.556 73.5,118C 72.552,117.517 71.552,117.351 70.5,117.5C 70.5,105.5 70.5,93.5 70.5,81.5 Z"/></g>
<g><path style="opacity:1" fill="#3b5170" d="M -0.5,81.5 C 6.16667,81.5 12.8333,81.5 19.5,81.5C 19.3338,87.8421 19.5005,94.1754 20,100.5C 29.8144,106.32 39.6478,111.987 49.5,117.5C 47.8002,117.626 46.3002,118.293 45,119.5C 43.2382,119.056 43.4049,118.556 45.5,118C 43.8008,117.607 42.3008,118.107 41,119.5C 39.2382,119.056 39.4049,118.556 41.5,118C 39.8008,117.607 38.3008,118.107 37,119.5C 35.2382,119.056 35.4049,118.556 37.5,118C 35.8008,117.607 34.3008,118.107 33,119.5C 31.2382,119.056 31.4049,118.556 33.5,118C 31.8008,117.607 30.3008,118.107 29,119.5C 27.2382,119.056 27.4049,118.556 29.5,118C 27.8008,117.607 26.3008,118.107 25,119.5C 23.2382,119.056 23.4049,118.556 25.5,118C 23.8008,117.607 22.3008,118.107 21,119.5C 19.2382,119.056 19.4049,118.556 21.5,118C 19.8008,117.607 18.3008,118.107 17,119.5C 15.2382,119.056 15.4049,118.556 17.5,118C 15.8008,117.607 14.3008,118.107 13,119.5C 11.2382,119.056 11.4049,118.556 13.5,118C 11.8008,117.607 10.3008,118.107 9,119.5C 7.23824,119.056 7.4049,118.556 9.5,118C 7.80081,117.607 6.30081,118.107 5,119.5C 3.23824,119.056 3.4049,118.556 5.5,118C 5,117.833 4.5,117.667 4,117.5C 2.69981,118.707 1.19981,119.374 -0.5,119.5C -0.5,106.833 -0.5,94.1667 -0.5,81.5 Z"/></g>
<g><path style="opacity:1" fill="#3c5170" d="M 151.5,81.5 C 151.5,93.5 151.5,105.5 151.5,117.5C 150.527,118.984 149.193,119.484 147.5,119C 149.595,118.444 149.762,117.944 148,117.5C 146.699,118.893 145.199,119.393 143.5,119C 145.595,118.444 145.762,117.944 144,117.5C 142.699,118.893 141.199,119.393 139.5,119C 141.595,118.444 141.762,117.944 140,117.5C 138.699,118.893 137.199,119.393 135.5,119C 137.595,118.444 137.762,117.944 136,117.5C 134.699,118.893 133.199,119.393 131.5,119C 133.595,118.444 133.762,117.944 132,117.5C 130.699,118.893 129.199,119.393 127.5,119C 129.595,118.444 129.762,117.944 128,117.5C 126.699,118.893 125.199,119.393 123.5,119C 125.595,118.444 125.762,117.944 124,117.5C 122.699,118.893 121.199,119.393 119.5,119C 121.595,118.444 121.762,117.944 120,117.5C 118.699,118.893 117.199,119.393 115.5,119C 117.595,118.444 117.762,117.944 116,117.5C 114.699,118.893 113.199,119.393 111.5,119C 113.595,118.444 113.762,117.944 112,117.5C 110.699,118.893 109.199,119.393 107.5,119C 109.595,118.444 109.762,117.944 108,117.5C 106.699,118.893 105.199,119.393 103.5,119C 105.595,118.444 105.762,117.944 104,117.5C 102.699,118.893 101.199,119.393 99.5,119C 101.595,118.444 101.762,117.944 100,117.5C 98.3625,119.518 96.5292,119.851 94.5,118.5C 106.5,111.167 118.5,103.833 130.5,96.5C 131.487,91.6946 131.821,86.6946 131.5,81.5C 138.167,81.5 144.833,81.5 151.5,81.5 Z"/></g>
<g><path style="opacity:1" fill="#65758d" d="M 69.5,62.5 C 70.4902,68.6446 70.8235,74.9779 70.5,81.5C 70.5,93.5 70.5,105.5 70.5,117.5C 70.8226,121.226 70.4892,124.893 69.5,128.5C 68.8933,128.376 68.56,128.043 68.5,127.5C 69.4973,106.006 69.8307,84.3398 69.5,62.5 Z"/></g>
<g><path style="opacity:1" fill="#354968" d="M 49.5,117.5 C 55.6754,121.088 62.0087,124.422 68.5,127.5C 68.56,128.043 68.8933,128.376 69.5,128.5C 70.4892,124.893 70.8226,121.226 70.5,117.5C 71.552,117.351 72.552,117.517 73.5,118C 71.4049,118.556 71.2382,119.056 73,119.5C 74.0769,118.571 75.2436,117.904 76.5,117.5C 76.3347,121.182 76.5014,124.848 77,128.5C 82.4815,124.511 88.3148,121.178 94.5,118.5C 96.5292,119.851 98.3625,119.518 100,117.5C 101.762,117.944 101.595,118.444 99.5,119C 101.199,119.393 102.699,118.893 104,117.5C 105.762,117.944 105.595,118.444 103.5,119C 105.199,119.393 106.699,118.893 108,117.5C 109.762,117.944 109.595,118.444 107.5,119C 109.199,119.393 110.699,118.893 112,117.5C 113.762,117.944 113.595,118.444 111.5,119C 113.199,119.393 114.699,118.893 116,117.5C 117.762,117.944 117.595,118.444 115.5,119C 117.199,119.393 118.699,118.893 120,117.5C 121.762,117.944 121.595,118.444 119.5,119C 121.199,119.393 122.699,118.893 124,117.5C 125.762,117.944 125.595,118.444 123.5,119C 125.199,119.393 126.699,118.893 128,117.5C 129.762,117.944 129.595,118.444 127.5,119C 129.199,119.393 130.699,118.893 132,117.5C 133.762,117.944 133.595,118.444 131.5,119C 133.199,119.393 134.699,118.893 136,117.5C 137.762,117.944 137.595,118.444 135.5,119C 137.199,119.393 138.699,118.893 140,117.5C 141.762,117.944 141.595,118.444 139.5,119C 141.199,119.393 142.699,118.893 144,117.5C 145.762,117.944 145.595,118.444 143.5,119C 145.199,119.393 146.699,118.893 148,117.5C 149.762,117.944 149.595,118.444 147.5,119C 149.193,119.484 150.527,118.984 151.5,117.5C 151.5,125.5 151.5,133.5 151.5,141.5C 100.833,141.5 50.1667,141.5 -0.5,141.5C -0.5,134.167 -0.5,126.833 -0.5,119.5C 1.19981,119.374 2.69981,118.707 4,117.5C 4.5,117.667 5,117.833 5.5,118C 3.4049,118.556 3.23824,119.056 5,119.5C 6.30081,118.107 7.80081,117.607 9.5,118C 7.4049,118.556 7.23824,119.056 9,119.5C 10.3008,118.107 11.8008,117.607 13.5,118C 11.4049,118.556 11.2382,119.056 13,119.5C 14.3008,118.107 15.8008,117.607 17.5,118C 15.4049,118.556 15.2382,119.056 17,119.5C 18.3008,118.107 19.8008,117.607 21.5,118C 19.4049,118.556 19.2382,119.056 21,119.5C 22.3008,118.107 23.8008,117.607 25.5,118C 23.4049,118.556 23.2382,119.056 25,119.5C 26.3008,118.107 27.8008,117.607 29.5,118C 27.4049,118.556 27.2382,119.056 29,119.5C 30.3008,118.107 31.8008,117.607 33.5,118C 31.4049,118.556 31.2382,119.056 33,119.5C 34.3008,118.107 35.8008,117.607 37.5,118C 35.4049,118.556 35.2382,119.056 37,119.5C 38.3008,118.107 39.8008,117.607 41.5,118C 39.4049,118.556 39.2382,119.056 41,119.5C 42.3008,118.107 43.8008,117.607 45.5,118C 43.4049,118.556 43.2382,119.056 45,119.5C 46.3002,118.293 47.8002,117.626 49.5,117.5 Z"/></g>
</svg>
